<svg width="70" height="25" viewBox="0 0 70 25" fill="none" xmlns="http://www.w3.org/2000/svg">
<path fill-rule="evenodd" clip-rule="evenodd" d="M59 3C61.0096 3 62.8694 3.5024 64.5793 4.50721C66.2364 5.45914 67.5409 6.76361 68.4928 8.42067C69.4976 10.1306 70 11.9904 70 14C70 16.0096 69.4976 17.8694 68.4928 19.5793C67.5409 21.2364 66.2364 22.5409 64.5793 23.4928C62.8694 24.4976 61.0096 25 59 25C56.9904 25 55.1306 24.4976 53.4207 23.4928C51.7636 22.5232 50.4591 21.2099 49.5072 19.5529C48.5024 17.8429 48 15.992 48 14C48 12.008 48.5024 10.1571 49.5072 8.44712C50.4768 6.79006 51.7901 5.47677 53.4471 4.50721C55.1571 3.5024 57.008 3 59 3Z" fill="white"/>
<path d="M0.871582 9.70508H3.74268C3.74268 8.27979 4.86035 7.28516 6.33691 7.28516C7.66992 7.28516 8.58252 8.1875 8.58252 9.37695C8.58252 10.4023 8.16211 11.1099 6.28564 12.9146L1.0459 17.8774V20H11.8022V17.5391H5.09619V17.4775L8.20312 14.5039C10.7051 12.1147 11.5972 10.9971 11.5972 9.18213C11.5972 6.72119 9.50537 4.87549 6.33691 4.87549C3.12744 4.87549 0.871582 6.85449 0.871582 9.70508ZM19.5234 20.3281C23.0508 20.3281 25.522 18.5645 25.522 16.001C25.522 14.0527 24.0967 12.6172 22.0767 12.2173V12.1558C23.8096 11.7251 24.9785 10.4536 24.9785 8.86426C24.9785 6.54688 22.7329 4.87549 19.5234 4.87549C16.314 4.87549 14.0581 6.55713 14.0581 8.854C14.0581 10.4639 15.2373 11.7354 16.9805 12.1558V12.2173C14.9604 12.6069 13.5249 14.0425 13.5249 15.9907C13.5249 18.5542 15.9858 20.3281 19.5234 20.3281ZM19.5234 11.2227C18.1187 11.2227 17.124 10.3818 17.124 9.17188C17.124 7.95166 18.1187 7.11084 19.5234 7.11084C20.918 7.11084 21.9229 7.95166 21.9229 9.17188C21.9229 10.3818 20.918 11.2227 19.5234 11.2227ZM19.5234 18.0723C17.8931 18.0723 16.7549 17.1084 16.7549 15.7651C16.7549 14.4424 17.8931 13.4785 19.5234 13.4785C21.1538 13.4785 22.2817 14.4321 22.2817 15.7651C22.2817 17.1084 21.1538 18.0723 19.5234 18.0723ZM33.0996 20.3281C36.4937 20.3281 38.8213 18.2056 38.8213 15.0781C38.8213 12.2583 36.8013 10.228 33.9814 10.228C32.4844 10.228 31.2642 10.833 30.6489 11.8276H30.5874L30.9463 7.66455H37.9292V5.20361H28.4854L27.8086 13.8887H30.5054C31.0078 12.9966 31.9307 12.4429 33.1201 12.4429C34.7402 12.4429 35.8682 13.5605 35.8682 15.1499C35.8682 16.7598 34.7402 17.8774 33.1099 17.8774C31.6846 17.8774 30.5874 17.0366 30.4131 15.7549H27.5522C27.6343 18.4414 29.9312 20.3281 33.0996 20.3281Z" fill="white"/>
<path fill-rule="evenodd" clip-rule="evenodd" d="M63.6538 20.6106L62.4111 15.2957L66.5361 11.726L61.1154 11.25L59 6.30529L56.8846 11.3029L51.4639 11.726L55.5889 15.2957L54.3462 20.6106L59 17.8077L63.6538 20.6106ZM59 3C61.0096 3 62.8694 3.5024 64.5793 4.50721C66.2364 5.45914 67.5409 6.76361 68.4928 8.42067C69.4976 10.1306 70 11.9904 70 14C70 16.0096 69.4976 17.8694 68.4928 19.5793C67.5409 21.2364 66.2364 22.5409 64.5793 23.4928C62.8694 24.4976 61.0096 25 59 25C56.9904 25 55.1306 24.4976 53.4207 23.4928C51.7636 22.5232 50.4591 21.2099 49.5072 19.5529C48.5024 17.8429 48 15.992 48 14C48 12.008 48.5024 10.1571 49.5072 8.44712C50.4768 6.79006 51.7901 5.47677 53.4471 4.50721C55.1571 3.5024 57.008 3 59 3Z" fill="url(#paint0_linear)"/>
<defs>
<linearGradient id="paint0_linear" x1="70" y1="25" x2="70" y2="3" gradientUnits="userSpaceOnUse">
<stop stop-color="#FFD75B"/>
<stop offset="1" stop-color="#FA9D44"/>
</linearGradient>
</defs>
</svg>
