<svg width="20" height="12" viewBox="0 0 20 12" fill="none" xmlns="http://www.w3.org/2000/svg">
<path fill-rule="evenodd" clip-rule="evenodd" d="M19.0022 2H0.997831C0.455531 2 0 1.54348 0 1C0 0.456522 0.455531 0 0.997831 0H19.0022C19.5445 0 20 0.456522 20 1C20 1.54348 19.5445 2 19.0022 2ZM4.01302 5H16.0087C16.551 5 17.0065 5.45652 17.0065 6C17.0065 6.54348 16.551 7 16.0087 7H4.01302C3.47072 7 3.01518 6.54348 3.01518 6C2.99349 5.45652 3.44902 5 4.01302 5ZM12.9935 10H7.00651C6.44252 10 6.00868 10.4565 6.00868 11C6.00868 11.5435 6.46421 12 7.00651 12H12.9935C13.5358 12 13.9913 11.5435 13.9913 11C13.9913 10.4565 13.5358 10 12.9935 10Z" fill="#222831"/>
</svg>
