<svg width="28" height="28" viewBox="0 0 28 28" fill="none" xmlns="http://www.w3.org/2000/svg">
<path d="M10.062 2.73956V10.2734H2.6377V2.73956H10.062ZM9.0851 3.71798H3.61458V9.29496H9.0851V3.71798Z" fill="#3598FB"/>
<path d="M24.5197 2.73956V10.2734H17.0954V2.73956H24.5197ZM23.5428 3.71798H18.0723V9.29496H23.5428V3.71798Z" fill="#3598FB"/>
<path d="M10.062 17.0245V24.4604H2.6377V17.0245H10.062ZM9.0851 18.0029H3.61458V23.482H9.0851V18.0029Z" fill="#3598FB"/>
<path d="M15.3371 23.482V22.3079H14.3603V23.482H13.188V21.4274H15.1418V20.4489H11.9181V19.5684H10.9412L11.0389 21.4274H12.2111V22.5036H10.9412V23.482H12.2111V24.4604H16.314V23.482H15.3371Z" fill="#3598FB"/>
<path d="M3.71227 12.0345H2.6377V11.0561H3.71227V12.0345Z" fill="#3598FB"/>
<path d="M12.0156 6.75106H11.0387V5.77264H12.0156V6.75106Z" fill="#3598FB"/>
<path d="M12.1133 3.81576H11.0387V2.83734H12.1133V3.81576Z" fill="#3598FB"/>
<path d="M21.6867 21.036H20.7098V20.0576H21.6867V21.036Z" fill="#3598FB"/>
<path d="M4.88436 14.0892H5.86123V13.1108H4.88436V12.1324H3.90748V13.013H2.73522V15.3612H3.90748V16.1439H6.9358V14.2849H5.86123V15.1655H4.88436V14.0892Z" fill="#3598FB"/>
<path d="M23.6404 11.0561V12.0345H24.5196V13.0129H22.9566V14.2849H20.1236V15.1654H21.6866V17.4158H20.612V16.1439H18.3652V15.1654H19.1467V14.2849H18.5606V13.3065H21.7843V11.5453H20.5144V11.0561C21.4912 11.0561 22.5658 11.0561 23.6404 11.0561Z" fill="#3598FB"/>
<path d="M11.8201 12.0345H8.79178V13.0129H6.74034V12.0345H5.66577V11.0561H11.8201V12.0345Z" fill="#3598FB"/>
<path d="M12.0156 7.2403H11.0387V8.9036V10.5669H12.0156H13.0901V8.9036H12.0156V7.2403Z" fill="#3598FB"/>
<path d="M13.0901 8.31655H14.1647V10.0777H15.4346V8.9036H16.2161V7.33813H13.0901V8.31655Z" fill="#3598FB"/>
<path d="M14.9462 4.30503H12.211V5.38129H13.9694V6.45755H15.2393V5.38129H16.3139C16.3139 4.50071 16.3139 3.62014 16.3139 2.73956H13.9694V3.81582H14.9462V4.30503Z" fill="#3598FB"/>
<path d="M13.481 6.84896H12.5041V5.87054H13.481V6.84896Z" fill="#3598FB"/>
<path d="M10.9411 13.6H9.96423V12.6216H10.9411V13.6Z" fill="#3598FB"/>
<path d="M15.337 17.9051H14.2624V16.1439H15.337V17.9051Z" fill="#3598FB"/>
<path d="M13.6763 17.6115H12.6994V16.6331H13.6763V17.6115Z" fill="#3598FB"/>
<path d="M20.1237 18.4921H19.1468V16.5352H20.1237V18.4921Z" fill="#3598FB"/>
<path d="M23.5426 23.482H21.7842V24.4604H24.5195V21.9165H23.5426V23.482Z" fill="#3598FB"/>
<path d="M17.8768 23.1885H16.8023V21.4274H17.8768V23.1885Z" fill="#3598FB"/>
<path d="M12.0156 18.2964H11.0387V16.046H12.0156V18.2964Z" fill="#3598FB"/>
<path d="M16.8023 19.177H15.337V18.1986H12.211V19.177H14.4578V20.1554H15.63V21.2317H20.1237V20.1554H18.8537V19.177H17.7792V20.1554H16.8023V19.177Z" fill="#3598FB"/>
<path d="M18.0722 17.5136H16.8022V18.5899H15.8253V16.5352H18.0722V17.5136Z" fill="#3598FB"/>
<path d="M19.3421 21.5252H20.319V23.482H21.1982V24.4605C19.6352 24.4605 19.9283 24.4605 18.1699 24.4605V23.482H19.3421V21.5252Z" fill="#3598FB"/>
<path d="M11.5272 15.1655H8.59655V16.1439H7.61967V14.872V14.1871H11.5272V15.1655Z" fill="#3598FB"/>
<path d="M13.2855 12.0345V12.9151H15.3369V12.0345H16.6069V11.0561H12.4063V12.0345H13.2855Z" fill="#3598FB"/>
<path d="M14.1648 14.3828H12.0156V13.4044H14.1648V14.3828Z" fill="#3598FB"/>
<path d="M15.4348 14.6763H14.3602V15.6547H16.5093V13.4044H15.4348V14.6763Z" fill="#3598FB"/>
<path d="M24.5198 18.0029H23.9337V18.7857H22.9568V18.0029H22.4683V15.8504H24.5198V18.0029Z" fill="#3598FB"/>
<path d="M21.6868 18.9813H20.6123V18.0029H21.6868V18.9813Z" fill="#3598FB"/>
<path d="M22.2727 21.2317C22.9565 21.2317 23.738 21.2317 24.5195 21.2317V19.3727H23.5427V20.2533H22.2727V21.2317Z" fill="#3598FB"/>
<path d="M23.152 23.0907H22.0774V22.1122H23.152V23.0907Z" fill="#3598FB"/>
<path d="M8.01051 8.02303H4.68912V4.89209H8.01051V8.02303Z" fill="#3598FB"/>
<path d="M22.4682 8.02303H19.1468V4.89209H22.4682V8.02303Z" fill="#3598FB"/>
<path d="M8.01051 22.3079H4.68912V19.177H8.01051V22.3079Z" fill="#3598FB"/>
<path d="M17.8768 24.4604H16.8023V23.482H17.8768V24.4604Z" fill="#3598FB"/>
<path d="M13.6762 15.8504H12.6016V14.8719H13.6762V15.8504Z" fill="#3598FB"/>
<path d="M21.296 12.9151H20.3191V11.9366H21.296V12.9151Z" fill="#3598FB"/>
<path d="M18.8538 12.0345H17.7792V11.0561H18.8538V12.0345Z" fill="#3598FB"/>
<path d="M24.5197 15.5568H23.5428V14.5784H24.5197V15.5568Z" fill="#3598FB"/>
<path d="M0 5.18561V0H5.27515V0.978417H0.976879V5.18561H0Z" fill="#3598FB"/>
<path d="M27.1572 5.18561V0H21.882V0.978417H26.1803V5.18561H27.1572Z" fill="#3598FB"/>
<path d="M0 22.0144V27.2H5.27515V26.2216H0.976879V22.0144H0Z" fill="#3598FB"/>
<path d="M27.1572 22.0144V27.2H21.882V26.2216H26.1803V22.0144H27.1572Z" fill="#3598FB"/>
</svg>
