<svg width="35" height="28" viewBox="0 0 35 28" fill="none" xmlns="http://www.w3.org/2000/svg">
<path fill-rule="evenodd" clip-rule="evenodd" d="M20.3174 23.2882H21.3596C21.75 23.2882 22.0657 23.6113 22.0657 24.0118V25.8145C22.0657 26.2204 21.7439 26.5498 21.3472 26.5498H10.051C9.66052 26.5498 9.34393 26.2258 9.34393 25.8262V24.0235C9.34393 23.6176 9.66668 23.2882 10.0633 23.2882H11.065C11.3358 23.2882 11.5988 23.1667 11.7588 22.9435C12.9892 21.229 14.1447 18.0988 14.245 16.5364C12.983 15.5932 11.9435 14.4448 11.0949 13.138C7.15415 11.6701 4.55368 8.19882 4.39714 4.04262C4.39714 3.53502 4.58886 3.33612 5.07606 3.33612H8.02478V2.08512C8.02478 1.55682 8.22441 1.34982 8.73097 1.34982H22.6796C23.1861 1.34982 23.3858 1.55682 23.3849 2.08512V3.33612H26.4286C26.9158 3.33612 27.1075 3.53502 27.1075 4.10112C26.9492 8.24112 24.2951 11.7403 20.2884 13.1821C19.4433 14.47 18.4135 15.6049 17.1656 16.5364C17.2649 18.0907 18.3968 21.2272 19.6244 22.9426C19.7845 23.1667 20.0466 23.2882 20.3174 23.2882Z" stroke="#BCC1C8" stroke-width="1.35"/>
</svg>
