<svg width="39" height="29" viewBox="0 0 39 29" fill="none" xmlns="http://www.w3.org/2000/svg">
<path d="M14.9298 17.5087C14.7991 17.5087 14.6686 17.4682 14.5537 17.3878L9.33736 13.7293H0.706738C0.316445 13.7293 0 13.3762 0 12.9406V0.788759C0 0.35317 0.316445 0 0.706738 0H19.0819C19.4722 0 19.7887 0.35317 19.7887 0.788759V12.9406C19.7887 13.3762 19.4722 13.7293 19.0819 13.7293H15.6366V16.7199C15.6366 17.0069 15.4968 17.2714 15.2718 17.4101C15.1652 17.476 15.0475 17.5087 14.9298 17.5087ZM1.41348 12.1518H9.54096C9.67417 12.1518 9.80427 12.1938 9.91711 12.2728L14.2231 15.2926V12.9406C14.2231 12.505 14.5395 12.1518 14.9298 12.1518H18.3752V1.57752H1.41348V12.1518ZM27.226 14.3775C24.2337 14.3775 21.7991 11.6604 21.7991 8.32087C21.7991 4.98135 24.2337 2.26422 27.226 2.26422C30.2182 2.26422 32.6525 4.98135 32.6525 8.32087C32.6525 11.6604 30.2182 14.3775 27.226 14.3775ZM27.226 3.84174C25.0129 3.84174 23.2126 5.85099 23.2126 8.32087C23.2126 10.7908 25.0129 12.8 27.226 12.8C29.4387 12.8 31.239 10.7908 31.239 8.32087C31.239 5.85099 29.4387 3.84174 27.226 3.84174ZM27.226 29C21.1107 29 15.4516 28.4092 15.4516 24.1222C15.4516 20.3344 20.5948 15.9312 27.226 15.9312C33.8568 15.9312 39 20.3344 39 24.1222C39 28.4092 33.3413 29 27.226 29ZM27.226 17.5087C21.6459 17.5087 16.8651 21.1451 16.8651 24.1222C16.8651 27.0474 22.402 27.4225 27.226 27.4225C32.0496 27.4225 37.5865 27.0474 37.5865 24.1222C37.5865 21.1451 32.8057 17.5087 27.226 17.5087Z" fill="#BCC1C8"/>
</svg>
