<svg width="35" height="27" viewBox="0 0 35 27" fill="none" xmlns="http://www.w3.org/2000/svg">
<path fill-rule="evenodd" clip-rule="evenodd" d="M16.7202 0C17.0981 0 17.4416 0.0966787 17.7508 0.290039C18.0599 0.483399 18.2918 0.747069 18.4464 1.08105L21.4351 7.43555L28.3142 8.46387C28.6577 8.5166 28.9669 8.65723 29.2417 8.88574C29.5166 9.11426 29.7141 9.4043 29.8343 9.75586C29.9374 10.0898 29.9503 10.4282 29.873 10.771C29.7957 11.1138 29.6282 11.417 29.3706 11.6807L24.3465 16.8223L25.5059 23.9678C25.5746 24.3193 25.5359 24.6621 25.3899 24.9961C25.2439 25.3301 25.0249 25.6025 24.7329 25.8135C24.5612 25.9365 24.3808 26.0244 24.1919 26.0771C24.003 26.1299 23.814 26.1562 23.6251 26.1562C23.4705 26.1562 23.3159 26.1387 23.1613 26.1035C23.0067 26.0684 22.8521 26.0068 22.6976 25.9189L16.7202 22.623L10.7171 25.9189C10.5796 26.0068 10.4336 26.0684 10.2791 26.1035C10.1245 26.1387 9.96988 26.1562 9.81529 26.1562C9.60918 26.1562 9.41595 26.1299 9.23559 26.0771C9.05524 26.0244 8.87918 25.9365 8.70742 25.8135C8.41542 25.6025 8.19643 25.3301 8.05043 24.9961C7.90443 24.6621 7.86578 24.3193 7.93449 23.9678L9.09389 16.8223L4.06981 11.6807C3.81216 11.417 3.64469 11.1138 3.5674 10.771C3.49011 10.4282 3.50299 10.0898 3.60605 9.75586C3.72628 9.42187 3.92381 9.13623 4.19863 8.89893C4.47345 8.66162 4.78263 8.5166 5.12615 8.46387L12.0053 7.43555L14.994 1.08105C15.1485 0.747069 15.3804 0.483399 15.6896 0.290039C15.9988 0.0966787 16.3423 0 16.7202 0Z" fill="#3598FB"/>
</svg>
