<svg width="26" height="31" viewBox="0 0 26 31" fill="none" xmlns="http://www.w3.org/2000/svg">
<path fill-rule="evenodd" clip-rule="evenodd" d="M24.543 21.7344C25.0508 22.3594 25.4512 22.916 25.7441 23.4043C26.0371 23.8926 26.0664 24.3809 25.832 24.8691C25.5977 25.3574 25.2168 25.6406 24.6895 25.7188C24.1621 25.7969 23.752 25.8359 23.459 25.8359H17.9805C17.9805 27.2227 17.4922 28.4043 16.5156 29.3809C15.5391 30.3574 14.3574 30.8457 12.9707 30.8457C11.584 30.8457 10.4023 30.3574 9.42578 29.3809C8.44921 28.4043 7.96094 27.2227 7.96094 25.8359H2.59961C2.15039 25.8359 1.68652 25.7822 1.20801 25.6748C0.729488 25.5674 0.382812 25.2988 0.167967 24.8691C-0.0664088 24.3809 -0.0468778 23.8779 0.226561 23.3604C0.5 22.8428 0.87109 22.2715 1.33984 21.6465C1.86719 20.9629 2.44335 20.1865 3.06836 19.3174C3.69336 18.4482 4.00586 17.5449 4.00586 16.6074V10.4844C4.00586 9.15624 4.23535 7.91114 4.69433 6.74902C5.15332 5.58691 5.7832 4.57129 6.58398 3.70215C7.38477 2.833 8.33202 2.14942 9.42578 1.65137C10.5195 1.15332 11.6914 0.904297 12.9414 0.904297C14.2109 0.904297 15.3926 1.15332 16.4863 1.65137C17.5801 2.14942 18.5322 2.833 19.3428 3.70215C20.1533 4.57129 20.7881 5.58691 21.2471 6.74902C21.7061 7.91114 21.9355 9.15624 21.9355 10.4844V16.6074C21.9355 17.5645 22.2334 18.4922 22.8291 19.3906C23.4248 20.2891 23.9961 21.0703 24.543 21.7344ZM12.9707 28.8828C13.8105 28.8828 14.5283 28.585 15.124 27.9893C15.7197 27.3936 16.0176 26.6758 16.0176 25.8359H9.92383C9.92383 26.6758 10.2217 27.3936 10.8174 27.9893C11.4131 28.585 12.1309 28.8828 12.9707 28.8828ZM23.3418 23.4189C23.459 23.5654 23.5664 23.707 23.6641 23.8438H2.24805C2.3457 23.6875 2.45801 23.5215 2.58496 23.3457C2.71191 23.1699 2.83398 23.0039 2.95117 22.8477C3.51758 22.0859 4.16699 21.1729 4.89941 20.1084C5.63184 19.0439 5.99805 17.877 5.99805 16.6074V10.4844C5.99805 9.42968 6.17382 8.44336 6.52539 7.52539C6.87695 6.60742 7.36523 5.80664 7.99023 5.12305C8.61524 4.43945 9.35253 3.89746 10.2021 3.49707C11.0518 3.09668 11.9648 2.89648 12.9414 2.89648C13.9375 2.89648 14.8603 3.09668 15.71 3.49707C16.5596 3.89746 17.2969 4.43945 17.9219 5.12305C18.5469 5.80664 19.04 6.60742 19.4014 7.52539C19.7627 8.44336 19.9434 9.42968 19.9434 10.4844V16.6074C19.9434 17.916 20.29 19.1123 20.9834 20.1963C21.6768 21.2803 22.3457 22.2129 22.9902 22.9941C23.1074 23.1309 23.2246 23.2725 23.3418 23.4189Z" fill="white"/>
</svg>
