<svg width="31" height="31" viewBox="0 0 31 31" fill="none" xmlns="http://www.w3.org/2000/svg">
<path fill-rule="evenodd" clip-rule="evenodd" d="M15.5 31C24.0604 31 31 24.0604 31 15.5C31 6.93959 24.0604 0 15.5 0C6.93959 0 0 6.93959 0 15.5C0 24.0604 6.93959 31 15.5 31Z" fill="#3589EE"/>
<path fill-rule="evenodd" clip-rule="evenodd" d="M14.3795 15.0797L12.3049 13.005C11.0089 11.7091 11.0088 9.60075 12.3047 8.30489C13.6006 7.00892 15.7092 7.00882 17.0052 8.30478L19.0798 10.3794V10.3794M20.5571 8.90214L18.4825 6.82748C16.3718 4.71683 12.9378 4.71715 10.8274 6.82759C8.71694 8.93803 8.71683 12.3718 10.8275 14.4825L12.9021 16.5571" fill="white"/>
<path fill-rule="evenodd" clip-rule="evenodd" d="M21.8554 14H10.4384ZM17.0933 21.623C17.0933 22.0906 16.7142 22.4697 16.2467 22.4697H15.4558C14.988 22.4697 14.6092 22.0906 14.6092 21.623V19.3644C14.6092 19.3227 14.6128 19.2828 14.6187 19.2434C14.4005 18.9726 14.2704 18.6287 14.2704 18.254C14.2704 17.3805 14.978 16.6728 15.8511 16.6728C16.7246 16.6728 17.4325 17.3805 17.4325 18.254C17.4325 18.6287 17.3016 18.9726 17.0839 19.2434C17.0891 19.2828 17.0933 19.3227 17.0933 19.3644V21.623ZM10.4384 14H9.84703C9.37938 14 9 14.3792 9 14.8473V23.8062C9 24.274 9.37938 24.6531 9.84703 24.6531H21.8554C22.3231 24.6531 22.7022 24.274 22.7022 23.8062V14.8473C22.7022 14.3792 22.3231 14 21.8554 14" fill="white"/>
</svg>
