<svg width="31" height="31" viewBox="0 0 31 31" fill="none" xmlns="http://www.w3.org/2000/svg">
<path fill-rule="evenodd" clip-rule="evenodd" d="M15.5 31C24.0604 31 31 24.0604 31 15.5C31 6.93959 24.0604 0 15.5 0C6.93959 0 0 6.93959 0 15.5C0 24.0604 6.93959 31 15.5 31Z" fill="#3589EE"/>
<path fill-rule="evenodd" clip-rule="evenodd" d="M19.1749 14.3469H12.5277V11.4129C12.5277 9.58011 14.0185 8.08922 15.8511 8.08922C17.6839 8.08922 19.1749 9.58011 19.1749 11.4129V14.3469ZM17.0933 19.7112V21.9698C17.0933 22.4375 16.7142 22.8166 16.2467 22.8166H15.4558C14.988 22.8166 14.6092 22.4375 14.6092 21.9698V19.7112C14.6092 19.6696 14.6128 19.6297 14.6187 19.5902C14.4005 19.3195 14.2704 18.9756 14.2704 18.6009C14.2704 17.7274 14.978 17.0197 15.8511 17.0197C16.7246 17.0197 17.4325 17.7274 17.4325 18.6009C17.4325 18.9756 17.3016 19.3195 17.0839 19.5902C17.0891 19.6297 17.0933 19.6696 17.0933 19.7112V19.7112ZM21.8554 14.3469H21.2641V11.4129C21.2641 8.42797 18.8357 6 15.8511 6C12.8665 6 10.4384 8.42797 10.4384 11.4129V14.3469H9.84703C9.37938 14.3469 9 14.7261 9 15.1942V24.1531C9 24.6209 9.37938 25 9.84703 25H21.8554C22.3231 25 22.7022 24.6209 22.7022 24.1531V15.1942C22.7022 14.7261 22.3231 14.3469 21.8554 14.3469V14.3469Z" fill="white"/>
</svg>
