<svg width="348" height="816" viewBox="0 0 348 816" fill="none" xmlns="http://www.w3.org/2000/svg">
<path fill-rule="evenodd" clip-rule="evenodd" d="M81.5 478C108.286 478 130 456.286 130 429.5C130 402.714 108.286 381 81.5 381C54.7142 381 33 402.714 33 429.5C33 456.286 54.7142 478 81.5 478Z" fill="#EFEFEF"/>
<path fill-rule="evenodd" clip-rule="evenodd" d="M81.6772 468.354C103.038 468.354 120.354 451.038 120.354 429.677C120.354 408.316 103.038 391 81.6772 391C60.3164 391 43 408.316 43 429.677C43 451.038 60.3164 468.354 81.6772 468.354Z" fill="#BCC1C8"/>
<path fill-rule="evenodd" clip-rule="evenodd" d="M81.1453 440.784C75.856 440.784 71.5708 436.497 71.5708 431.21C71.5708 425.921 75.856 421.635 81.1453 421.635C86.4346 421.635 90.7198 425.921 90.7198 431.21C90.7198 436.497 86.4346 440.784 81.1453 440.784V440.784ZM106.677 437.115V424.239H100.676C100.39 423.398 100.049 422.585 99.6596 421.8L103.908 417.552L94.8 408.447L90.554 412.693C89.7671 412.305 88.9549 411.963 88.1154 411.678V405.677H75.2371V411.678C74.3976 411.963 73.5854 412.305 72.7985 412.693L68.5525 408.447L59.4449 417.552L63.6929 421.8C63.3034 422.585 62.9625 423.398 62.6782 424.239H56.6772V437.115H62.6782C62.9625 437.957 63.3034 438.767 63.6929 439.554L59.4449 443.802L68.5525 452.908L72.7985 448.662C73.5854 449.049 74.3976 449.392 75.2371 449.676V455.677H88.1154V449.676C88.9549 449.392 89.7671 449.049 90.554 448.662L94.8 452.908L103.908 443.802L99.6596 439.554C100.049 438.767 100.39 437.957 100.676 437.115H106.677Z" fill="white"/>
<path fill-rule="evenodd" clip-rule="evenodd" d="M81.5 165C108.286 165 130 143.286 130 116.5C130 89.7142 108.286 68 81.5 68C54.7142 68 33 89.7142 33 116.5C33 143.286 54.7142 165 81.5 165Z" fill="#EFEFEF"/>
<path fill-rule="evenodd" clip-rule="evenodd" d="M81.6772 154.354C103.038 154.354 120.354 137.038 120.354 115.677C120.354 94.3164 103.038 77 81.6772 77C60.3164 77 43 94.3164 43 115.677C43 137.038 60.3164 154.354 81.6772 154.354Z" fill="#BCC1C8"/>
<mask id="mask0" mask-type="alpha" maskUnits="userSpaceOnUse" x="72" y="111" width="31" height="26">
<path fill-rule="evenodd" clip-rule="evenodd" d="M72.5705 111.083H102.768V136.68H72.5705V111.083Z" fill="white"/>
</mask>
<g mask="url(#mask0)">
<path fill-rule="evenodd" clip-rule="evenodd" d="M97.3958 131.809C99.8968 129.143 101.379 125.558 101.379 121.607C101.379 117.517 99.7116 113.794 97.0253 111.083C95.8674 120.688 87.5305 128.132 77.4337 128.086H72.5705C75.0253 133.187 80.2589 136.68 86.28 136.68L102.768 136.634L97.3958 131.809Z" fill="white"/>
</g>
<mask id="mask1" mask-type="alpha" maskUnits="userSpaceOnUse" x="59" y="91" width="37" height="35">
<path fill-rule="evenodd" clip-rule="evenodd" d="M59 91.4597H95.3578V125.881H59V91.4597Z" fill="white"/>
</mask>
<g mask="url(#mask1)">
<path fill-rule="evenodd" clip-rule="evenodd" d="M78.1284 116.414H77.9431C74.1915 116.322 71.181 113.748 71.181 110.577C71.181 110.439 71.181 110.118 71.4589 109.842C71.6905 109.612 72.061 109.474 72.5705 109.474H83.7326C83.9178 109.474 84.3347 109.52 84.6589 109.842C84.8442 110.026 84.9831 110.302 84.9368 110.577C84.8905 113.748 81.88 116.368 78.1284 116.414M73.3115 101.846C74.5157 101.846 75.4884 102.811 75.4884 104.006C75.4884 105.201 74.5157 106.166 73.3115 106.166C72.1073 106.166 71.1347 105.201 71.1347 104.006C71.1347 102.811 72.1073 101.846 73.3115 101.846M82.5747 101.846C83.7789 101.846 84.7515 102.811 84.7515 104.006C84.7515 105.201 83.7789 106.166 82.5747 106.166C81.3705 106.166 80.3978 105.201 80.3978 104.006C80.3978 102.811 81.3705 101.846 82.5747 101.846M78.0357 91.4598C68.4484 91.4138 60.6673 99.0884 60.621 108.601C60.621 113.105 62.381 117.241 65.2063 120.32L59 125.835L77.9431 125.881C87.5305 125.881 95.3115 118.206 95.3578 108.693C95.3578 99.2263 87.6231 91.4598 78.0357 91.4598" fill="white"/>
</g>
<path fill-rule="evenodd" clip-rule="evenodd" d="M245.5 323C272.286 323 294 301.286 294 274.5C294 247.714 272.286 226 245.5 226C218.714 226 197 247.714 197 274.5C197 301.286 218.714 323 245.5 323Z" fill="#BCC1C8"/>
<path d="M282.955 274.5C282.955 295.186 266.186 311.955 245.5 311.955C224.814 311.955 208.045 295.186 208.045 274.5C208.045 253.814 224.814 237.045 245.5 237.045C266.186 237.045 282.955 253.814 282.955 274.5Z" fill="#BCC1C8" stroke="white" stroke-width="2.44372"/>
<path fill-rule="evenodd" clip-rule="evenodd" d="M229.47 254.616V254.616V297.374H257.319C259.054 297.374 260.46 295.962 260.46 294.221V254.616V254.283C260.46 252.275 262.081 250.648 264.081 250.648H233.423C231.24 250.648 229.47 252.424 229.47 254.616" fill="white"/>
<path fill-rule="evenodd" clip-rule="evenodd" d="M267.327 259.587V253.906C267.327 252.106 265.874 250.647 264.081 250.647C262.081 250.647 260.46 252.275 260.46 254.283V254.616V259.587H267.327Z" fill="#EFEFEF"/>
<path fill-rule="evenodd" clip-rule="evenodd" d="M253.593 290.027H222.785V294.115C222.785 295.915 224.238 297.374 226.031 297.374H256.839C255.046 297.374 253.593 295.915 253.593 294.115V290.027Z" fill="#EFEFEF"/>
<path fill-rule="evenodd" clip-rule="evenodd" d="M233.89 257.122C233.712 257.122 233.567 257.267 233.567 257.446V260.381C233.567 260.559 233.712 260.704 233.89 260.704H236.813C236.991 260.704 237.136 260.559 237.136 260.381V257.446C237.136 257.267 236.991 257.122 236.813 257.122H233.89ZM236.813 261.157H233.89C233.463 261.157 233.116 260.809 233.116 260.381V257.446C233.116 257.018 233.463 256.67 233.89 256.67H236.813C237.239 256.67 237.587 257.018 237.587 257.446V260.381C237.587 260.809 237.239 261.157 236.813 261.157V261.157Z" fill="#EFEFEF"/>
<path fill-rule="evenodd" clip-rule="evenodd" d="M235.415 260.477L233.845 258.121L234.444 257.719L235.288 258.984L237.032 255.054L237.691 255.348L235.415 260.477Z" fill="#BB30E1"/>
<path fill-rule="evenodd" clip-rule="evenodd" d="M233.89 265.064C233.712 265.064 233.567 265.209 233.567 265.388V268.323C233.567 268.501 233.712 268.646 233.89 268.646H236.813C236.991 268.646 237.136 268.501 237.136 268.323V265.388C237.136 265.209 236.991 265.064 236.813 265.064H233.89ZM236.813 269.099H233.89C233.463 269.099 233.116 268.751 233.116 268.323V265.388C233.116 264.96 233.463 264.612 233.89 264.612H236.813C237.239 264.612 237.587 264.96 237.587 265.388V268.323C237.587 268.751 237.239 269.099 236.813 269.099V269.099Z" fill="#EFEFEF"/>
<path fill-rule="evenodd" clip-rule="evenodd" d="M235.415 268.419L233.845 266.063L234.444 265.661L235.288 266.926L237.032 262.996L237.691 263.29L235.415 268.419Z" fill="#BB30E1"/>
<path fill-rule="evenodd" clip-rule="evenodd" d="M233.89 273.006C233.712 273.006 233.567 273.151 233.567 273.33V276.265C233.567 276.443 233.712 276.588 233.89 276.588H236.813C236.991 276.588 237.136 276.443 237.136 276.265V273.33C237.136 273.151 236.991 273.006 236.813 273.006H233.89ZM236.813 277.041H233.89C233.463 277.041 233.116 276.693 233.116 276.265V273.33C233.116 272.902 233.463 272.554 233.89 272.554H236.813C237.239 272.554 237.587 272.902 237.587 273.33V276.265C237.587 276.693 237.239 277.041 236.813 277.041V277.041Z" fill="#EFEFEF"/>
<path fill-rule="evenodd" clip-rule="evenodd" d="M235.415 276.361L233.845 274.005L234.444 273.603L235.288 274.868L237.032 270.938L237.691 271.232L235.415 276.361Z" fill="#BB30E1"/>
<path fill-rule="evenodd" clip-rule="evenodd" d="M233.89 280.948C233.712 280.948 233.567 281.093 233.567 281.272V284.207C233.567 284.385 233.712 284.531 233.89 284.531H236.813C236.991 284.531 237.136 284.385 237.136 284.207V281.272C237.136 281.093 236.991 280.948 236.813 280.948H233.89ZM236.813 284.983H233.89C233.463 284.983 233.116 284.635 233.116 284.207V281.272C233.116 280.844 233.463 280.496 233.89 280.496H236.813C237.239 280.496 237.587 280.844 237.587 281.272V284.207C237.587 284.635 237.239 284.983 236.813 284.983V284.983Z" fill="#EFEFEF"/>
<path fill-rule="evenodd" clip-rule="evenodd" d="M239.812 284.348H256.839V283.148H239.812V284.348Z" fill="#BB30E1"/>
<path fill-rule="evenodd" clip-rule="evenodd" d="M239.812 276.406H256.839V275.206H239.812V276.406Z" fill="#BB30E1"/>
<path fill-rule="evenodd" clip-rule="evenodd" d="M239.812 268.464H256.839V267.264H239.812V268.464Z" fill="#BB30E1"/>
<path fill-rule="evenodd" clip-rule="evenodd" d="M239.812 260.522H256.839V259.322H239.812V260.522Z" fill="#BB30E1"/>
<path fill-rule="evenodd" clip-rule="evenodd" d="M245.5 638C272.286 638 294 616.286 294 589.5C294 562.714 272.286 541 245.5 541C218.714 541 197 562.714 197 589.5C197 616.286 218.714 638 245.5 638Z" fill="#EFEFEF"/>
<path d="M283.133 589.677C283.133 610.363 266.363 627.133 245.677 627.133C224.991 627.133 208.222 610.363 208.222 589.677C208.222 568.991 224.991 552.222 245.677 552.222C266.363 552.222 283.133 568.991 283.133 589.677Z" fill="#BCC1C8" stroke="white" stroke-width="2.44372"/>
<path fill-rule="evenodd" clip-rule="evenodd" d="M81.5 798C108.286 798 130 776.286 130 749.5C130 722.714 108.286 701 81.5 701C54.7142 701 33 722.714 33 749.5C33 776.286 54.7142 798 81.5 798Z" fill="#EFEFEF"/>
<path d="M118.955 749.5C118.955 770.186 102.186 786.955 81.5 786.955C60.814 786.955 44.0446 770.186 44.0446 749.5C44.0446 728.814 60.814 712.045 81.5 712.045C102.186 712.045 118.955 728.814 118.955 749.5Z" fill="white" stroke="white" stroke-width="2.44372"/>
<path d="M246.128 825H81.0218C37.6539 825 2.49723 789.742 2.49723 746.25C2.49723 702.757 37.6539 667.5 81.2814 667.497H246.135C289.2 667.14 324 632.019 324 588.747C324 545.476 289.2 510.355 246.371 510H236.01H80.6414C37.2095 510 2 474.705 2 431.166C2 387.627 37.2095 352.333 80.903 352.33H246.001C289.13 351.972 323.983 316.813 323.983 273.497C323.983 230.18 289.13 195.023 246.237 194.666H80.899C37.4662 194.666 2.2566 159.372 2.2566 115.833C2.2566 72.295 37.4661 37 81.559 37L317.268 37" stroke="#EFEFEF" stroke-width="3" stroke-linecap="round" stroke-dasharray="10 10"/>
<g filter="url(#filter0_d)">
<path fill-rule="evenodd" clip-rule="evenodd" d="M324.332 29.4695L330.503 41.4015L291.412 35.6067L324.332 29.4695Z" fill="#DBDBDB"/>
<path fill-rule="evenodd" clip-rule="evenodd" d="M283.172 35.5011C283.125 36.0956 283.401 36.629 283.903 36.9295L314.891 55.2103C315.272 55.4393 315.733 55.4646 316.163 55.3122C316.385 55.2272 316.602 55.077 316.765 54.8823C316.884 54.7407 316.967 54.5694 317.033 54.3833L320.486 43.618L329.301 43.716C329.745 43.7264 330.154 43.5266 330.436 43.1903C330.54 43.0664 330.641 42.91 330.692 42.7415C330.904 42.1654 330.732 41.5081 330.254 41.1071L323.187 35.102L292.502 35.4884L324.75 30.3055L327.749 20.9084C327.931 20.3677 327.782 19.7903 327.369 19.3836C326.96 19.0095 326.374 18.8803 325.85 19.0738L284.146 34.2679C283.891 34.3558 283.675 34.5059 283.511 34.7006C283.318 34.9307 283.196 35.2202 283.172 35.5011Z" fill="white"/>
<mask id="mask2" mask-type="alpha" maskUnits="userSpaceOnUse" x="282" y="4" width="59" height="59">
<path fill-rule="evenodd" clip-rule="evenodd" d="M283.172 35.5011C283.125 36.0956 283.401 36.629 283.903 36.9295L314.891 55.2103C315.272 55.4393 315.733 55.4646 316.163 55.3122C316.385 55.2272 316.602 55.077 316.765 54.8823C316.884 54.7407 316.967 54.5694 317.033 54.3833L320.486 43.618L329.301 43.716C329.745 43.7264 330.154 43.5266 330.436 43.1903C330.54 43.0664 330.641 42.91 330.692 42.7415C330.904 42.1654 330.732 41.5081 330.254 41.1071L323.187 35.102L292.502 35.4884L324.75 30.3055L327.749 20.9084C327.931 20.3677 327.782 19.7903 327.369 19.3836C326.96 19.0095 326.374 18.8803 325.85 19.0738L284.146 34.2679C283.891 34.3558 283.675 34.5059 283.511 34.7006C283.318 34.9307 283.196 35.2202 283.172 35.5011Z" fill="white"/>
</mask>
<g mask="url(#mask2)">
<path fill-rule="evenodd" clip-rule="evenodd" d="M320.473 43.6369L323.216 35.1585L331.553 41.9097L329.803 44.4958L320.473 43.6369Z" fill="#DBDBDB"/>
</g>
</g>
<path fill-rule="evenodd" clip-rule="evenodd" d="M269.677 578.327V599.947C269.677 605.868 264.807 610.677 258.817 610.677C252.837 610.677 247.967 605.868 247.967 599.947C247.967 598.237 248.377 596.617 249.097 595.187C248.227 594.817 247.057 594.487 245.667 594.467C244.257 594.467 243.107 594.767 242.237 595.127C242.997 596.607 243.397 598.257 243.397 599.947C243.397 605.868 238.517 610.677 232.537 610.677C226.547 610.677 221.677 605.868 221.677 599.947V578.327C221.677 573.007 226.057 568.677 231.437 568.677C231.987 568.677 232.437 569.127 232.437 569.677C232.437 570.237 231.987 570.677 231.437 570.677C227.157 570.677 223.677 574.107 223.677 578.327V593.747C223.717 593.697 223.747 593.647 223.797 593.597C223.877 593.477 223.967 593.357 224.067 593.247C224.197 593.077 224.337 592.917 224.477 592.767C224.487 592.757 224.497 592.747 224.497 592.737C224.637 592.587 224.777 592.447 224.917 592.317C225.337 591.897 225.787 591.527 226.267 591.197C226.817 590.797 227.417 590.457 228.057 590.177C228.227 590.097 228.407 590.027 228.587 589.947C228.987 589.797 229.407 589.667 229.827 589.557C229.997 589.507 230.177 589.467 230.357 589.437C230.477 589.407 230.607 589.387 230.737 589.367C230.837 589.347 230.937 589.337 231.027 589.327C231.157 589.297 231.297 589.287 231.427 589.277C231.577 589.257 231.717 589.247 231.867 589.237C232.087 589.227 232.307 589.217 232.537 589.217C235.937 589.217 239.097 590.777 241.147 593.417C242.277 592.917 243.827 592.457 245.687 592.467C247.547 592.487 249.077 592.967 250.167 593.487C252.147 590.897 255.287 589.217 258.817 589.217C259.047 589.217 259.267 589.227 259.487 589.237C259.637 589.247 259.787 589.257 259.927 589.277C260.067 589.287 260.197 589.307 260.337 589.327C260.427 589.337 260.527 589.347 260.617 589.367C260.747 589.387 260.877 589.407 260.997 589.437C261.177 589.467 261.357 589.507 261.527 589.557C261.957 589.667 262.367 589.797 262.767 589.947C262.947 590.027 263.127 590.097 263.297 590.177C263.937 590.457 264.537 590.797 265.087 591.197C265.567 591.527 266.017 591.897 266.437 592.317C266.577 592.447 266.717 592.587 266.857 592.737C266.857 592.747 266.867 592.757 266.877 592.767C267.017 592.917 267.157 593.077 267.287 593.247C267.387 593.357 267.477 593.477 267.557 593.597C267.607 593.647 267.637 593.697 267.677 593.747V578.327C267.677 574.107 264.197 570.677 259.917 570.677C259.367 570.677 258.917 570.237 258.917 569.677C258.917 569.127 259.367 568.677 259.917 568.677C265.297 568.677 269.677 573.007 269.677 578.327" fill="white"/>
<defs>
<filter id="filter0_d" x="275.563" y="0.115368" width="72.3295" height="72.3293" filterUnits="userSpaceOnUse" color-interpolation-filters="sRGB">
<feFlood flood-opacity="0" result="BackgroundImageFix"/>
<feColorMatrix in="SourceAlpha" type="matrix" values="0 0 0 0 0 0 0 0 0 0 0 0 0 0 0 0 0 0 127 0"/>
<feOffset dy="3"/>
<feGaussianBlur stdDeviation="3.5"/>
<feColorMatrix type="matrix" values="0 0 0 0 0 0 0 0 0 0 0 0 0 0 0 0 0 0 0.15 0"/>
<feBlend mode="normal" in2="BackgroundImageFix" result="effect1_dropShadow"/>
<feBlend mode="normal" in="SourceGraphic" in2="effect1_dropShadow" result="shape"/>
</filter>
</defs>
</svg>
